<svg width="32" height="22" viewBox="0 0 32 22" fill="none" xmlns="http://www.w3.org/2000/svg">
<path d="M0 20.5C0 19.6716 0.671573 19 1.5 19H30.5C31.3284 19 32 19.6716 32 20.5C32 21.3284 31.3284 22 30.5 22H1.5C0.671573 22 0 21.3284 0 20.5Z" fill="#1D3557"/>
<path d="M8.5 0C9.88071 6.03528e-08 11 1.11929 11 2.5L11 18.5C11 19.8807 9.88071 21 8.5 21C7.11929 21 6 19.8807 6 18.5L6 2.5C6 1.11929 7.11929 -6.03528e-08 8.5 0Z" fill="#1D3557"/>
<path d="M23.5 0C24.8807 6.03528e-08 26 1.11929 26 2.5V18.5C26 19.8807 24.8807 21 23.5 21C22.1193 21 21 19.8807 21 18.5V2.5C21 1.11929 22.1193 -6.03528e-08 23.5 0Z" fill="#1D3557"/>
</svg>
