<svg width="31" height="31" viewBox="0 0 31 31" fill="none" xmlns="http://www.w3.org/2000/svg">
<path d="M2.12135 0.707078C2.51188 0.316554 3.14504 0.316554 3.53557 0.707078L29.8797 27.0512C30.2702 27.4417 30.2702 28.0749 29.8797 28.4654L28.4655 29.8796C28.0749 30.2701 27.4418 30.2701 27.0512 29.8796L0.707138 3.5355C0.316614 3.14498 0.316615 2.51182 0.707139 2.12129L2.12135 0.707078Z" fill="#F1FAEE"/>
<path d="M28.4662 0.707078C28.0757 0.316554 27.4425 0.316554 27.052 0.707078L0.707908 27.0512C0.317384 27.4417 0.317385 28.0749 0.707909 28.4654L2.12212 29.8796C2.51265 30.2701 3.14581 30.2701 3.53634 29.8796L29.8804 3.5355C30.271 3.14498 30.271 2.51182 29.8804 2.12129L28.4662 0.707078Z" fill="#F1FAEE"/>
</svg>
